<svg width="92" height="92" viewBox="0 0 92 92" fill="none" xmlns="http://www.w3.org/2000/svg">
<path d="M73.316 65.3877C73.9439 66.0137 73.9439 67.0286 73.316 67.6546L67.689 73.2648C67.0611 73.8908 66.0431 73.8908 65.4153 73.2648C64.7874 72.6388 64.7874 71.6239 65.4153 70.9979L71.0423 65.3877C71.6702 64.7617 72.6881 64.7617 73.316 65.3877Z" fill="white"/>
<path d="M28.2996 21.1697C28.9275 20.5438 28.9275 19.5288 28.2996 18.9029C27.6717 18.2769 26.6538 18.2769 26.0259 18.9029L20.3989 24.5131C19.771 25.1391 19.771 26.154 20.3989 26.78C21.0267 27.406 22.0447 27.406 22.6726 26.78L28.2996 21.1697Z" fill="white"/>
<path d="M8.03863 78.3182C7.41077 77.6922 7.41077 76.6773 8.03863 76.0513L20.5438 63.5835C21.1717 62.9575 22.1896 62.9575 22.8175 63.5835C23.4454 64.2094 23.4454 65.2244 22.8175 65.8503L10.3123 78.3182C9.68444 78.9442 8.66649 78.9442 8.03863 78.3182Z" fill="white"/>
<path d="M13.7228 81.7185C13.0949 82.3445 13.0949 83.3594 13.7228 83.9854C14.3506 84.6113 15.3686 84.6113 15.9965 83.9854L28.5017 71.5175C29.1295 70.8915 29.1295 69.8766 28.5017 69.2506C27.8738 68.6247 26.8558 68.6247 26.228 69.2506L13.7228 81.7185Z" fill="white"/>
<path fill-rule="evenodd" clip-rule="evenodd" d="M14.3209 0.659545C13.7714 0.813637 13.3451 1.24668 13.2007 1.79732C13.0564 2.34796 13.2158 2.93361 13.6194 3.33604L20.8766 10.5716C21.5045 11.1976 21.5045 12.2125 20.8766 12.8385L14.0556 19.6391C13.4278 20.2651 12.4098 20.2651 11.782 19.6391L4.67547 12.5539C4.26645 12.1461 3.66922 11.9888 3.11156 12.142C2.55389 12.2952 2.12176 12.7352 1.97996 13.2944C0.504396 19.1127 2.04822 25.5428 6.61886 30.0998C11.4279 34.8944 18.3152 36.3484 24.3833 34.4698L37.6324 47.6793L34.1858 51.1156C31.6744 48.6117 27.6025 48.6117 25.0911 51.1156C23.8189 52.384 23.1911 54.0516 23.2078 55.714C20.6767 55.2281 17.9564 55.9622 15.9965 57.9163L2.35446 71.5175C-0.784821 74.6474 -0.784822 79.722 2.35446 82.8519L9.17548 89.6526C12.3148 92.7825 17.4046 92.7825 20.5438 89.6526L34.1859 76.0513C36.1458 74.0972 36.8821 71.385 36.3947 68.8614C38.0621 68.878 39.7346 68.2522 41.0068 66.9838C43.5182 64.4799 43.5182 60.4202 41.0068 57.9163L44.4534 54.48L57.3156 67.3037C54.8361 73.6265 56.1555 81.0913 61.2817 86.2021C65.8523 90.7591 72.3017 92.2983 78.1374 90.8272C78.6982 90.6858 79.1396 90.255 79.2932 89.699C79.4469 89.143 79.2891 88.5475 78.8801 88.1397L72.0345 81.3145C71.4066 80.6885 71.4066 79.6736 72.0345 79.0476L78.8555 72.247C79.4833 71.621 80.5013 71.621 81.1292 72.247L88.1256 79.2226C88.5292 79.625 89.1166 79.7839 89.6689 79.64C90.2212 79.4961 90.6556 79.071 90.8101 78.5231C92.4845 72.5877 90.9812 65.9416 86.2921 61.2665C81.7052 56.6933 75.2271 55.1594 69.374 56.6573L55.8219 43.1456L77.1742 21.8571L85.7543 18.5789C86.1348 18.4335 86.4458 18.1494 86.6243 17.7841L91.8376 7.11363C92.138 6.49885 92.0141 5.76179 91.5291 5.27824L86.9817 0.744483C86.4967 0.260936 85.7574 0.137406 85.1408 0.436871L74.4384 5.63458C74.072 5.81253 73.787 6.12259 73.6412 6.50204L70.3531 15.0565L49.0009 36.345L35.8849 23.2682C37.9584 17.124 36.5425 10.0627 31.6292 5.16412C26.9402 0.489038 20.2741 -1.00979 14.3209 0.659545ZM53.5482 40.8788L51.2745 38.6119L72.8688 17.0821C73.0283 16.9231 73.1525 16.7323 73.2332 16.5223L76.4168 8.23975L85.5185 3.81941L88.4449 6.73707L84.0113 15.8116L75.704 18.9857C75.4933 19.0661 75.302 19.1899 75.1425 19.349L53.5482 40.8788ZM47.7503 39.632L32.8826 24.8087C32.4256 24.353 32.2867 23.6687 32.53 23.0717C34.6559 17.8565 33.5946 11.6574 29.3556 7.431C26.264 4.34862 22.1207 2.95129 18.0737 3.24325L23.1503 8.30472C25.0339 10.1827 25.0339 13.2274 23.1503 15.1054L16.3293 21.906C14.4457 23.7839 11.3919 23.7839 9.50829 21.906L4.66495 17.0771C4.51611 20.9539 5.92655 24.8758 8.89253 27.8329C13.0408 31.9688 19.0837 33.0708 24.2432 31.1295C24.8342 30.9071 25.501 31.0504 25.9477 31.4957L60.3586 65.8038C60.8371 66.2809 60.9647 67.0056 60.6779 67.6167C58.1685 72.9628 59.1307 79.5238 63.5553 83.9352C66.5213 86.8924 70.455 88.2986 74.3433 88.1502L69.7608 83.5814C67.8772 81.7035 67.8772 78.6587 69.7608 76.7808L76.5818 69.9801C78.4654 68.1022 81.5192 68.1022 83.4028 69.9801L88.2187 74.7816C88.5115 70.7467 87.11 66.6157 84.0184 63.5333C80.0632 59.59 74.3863 58.4045 69.3931 59.9857C68.8205 60.167 68.1943 60.0149 67.7696 59.5914L52.5251 44.3924C52.484 44.3588 52.4441 44.3229 52.4057 44.2847L47.8584 39.7509C47.82 39.7126 47.784 39.6729 47.7503 39.632ZM42.1437 52.2491L38.7332 55.6494L36.4595 53.3825L39.87 49.9822L42.1437 52.2491ZM27.3533 57.9048L34.1858 64.7169L34.1975 64.7286C35.4542 65.9688 37.4813 65.965 38.7331 64.7169C39.9888 63.4649 39.9888 61.4351 38.7331 60.1831L31.9121 53.3825C30.6564 52.1305 28.6205 52.1305 27.3648 53.3825C26.1129 54.6306 26.1091 56.6519 27.3533 57.9048ZM18.2702 60.1831C20.1495 58.3094 23.1938 58.3052 25.0784 60.1705L25.0912 60.1831L31.9121 66.9838L31.9243 66.9959C33.7958 68.8748 33.7917 71.9105 31.9122 73.7844L18.2702 87.3857C16.3866 89.2636 13.3327 89.2636 11.4492 87.3857L4.62814 80.5851C2.74456 78.7071 2.74456 75.6624 4.62814 73.7844L18.2702 60.1831Z" fill="white"/>
</svg>
