<svg width="78" height="78" viewBox="0 0 78 78" fill="none" xmlns="http://www.w3.org/2000/svg">
<path d="M54.2304 5.88679C54.2304 6.69959 53.6105 7.35849 52.8458 7.35849C52.0812 7.35849 51.4613 6.69959 51.4613 5.88679C51.4613 5.074 52.0812 4.41509 52.8458 4.41509C53.6105 4.41509 54.2304 5.074 54.2304 5.88679Z" fill="#475766"/>
<path d="M48.6921 7.35849C49.4568 7.35849 50.0767 6.69959 50.0767 5.88679C50.0767 5.074 49.4568 4.41509 48.6921 4.41509C47.9274 4.41509 47.3075 5.074 47.3075 5.88679C47.3075 6.69959 47.9274 7.35849 48.6921 7.35849Z" fill="#475766"/>
<path d="M45.9229 5.88679C45.9229 6.69959 45.303 7.35849 44.5383 7.35849C43.7737 7.35849 43.1538 6.69959 43.1538 5.88679C43.1538 5.074 43.7737 4.41509 44.5383 4.41509C45.303 4.41509 45.9229 5.074 45.9229 5.88679Z" fill="#475766"/>
<path d="M51.0557 26.9216L45.5174 21.0348C44.9767 20.4601 44.1 20.4601 43.5593 21.0348C43.0186 21.6096 43.0186 22.5414 43.5593 23.1161L48.1186 27.9623L43.5593 32.8084C43.0186 33.3831 43.0186 34.315 43.5593 34.8897C44.1 35.4644 44.9767 35.4644 45.5174 34.8897L51.0557 29.0029C51.5964 28.4282 51.5964 27.4964 51.0557 26.9216Z" fill="#475766"/>
<path d="M34.4407 21.0348C33.9 20.4601 33.0233 20.4601 32.4826 21.0348L26.9443 26.9216C26.4036 27.4964 26.4036 28.4282 26.9443 29.0029L32.4826 34.8897C33.0233 35.4644 33.9 35.4644 34.4407 34.8897C34.9814 34.315 34.9814 33.3831 34.4407 32.8084L29.8814 27.9623L34.4407 23.1161C34.9814 22.5414 34.9814 21.6096 34.4407 21.0348Z" fill="#475766"/>
<path d="M41.7278 22.4324C41.9133 21.6439 41.4622 20.8448 40.7204 20.6477C39.9785 20.4506 39.2268 20.93 39.0413 21.7185L36.2722 33.4921C36.0867 34.2806 36.5377 35.0797 37.2796 35.2768C38.0215 35.4739 38.7732 34.9945 38.9587 34.206L41.7278 22.4324Z" fill="#475766"/>
<path fill-rule="evenodd" clip-rule="evenodd" d="M19.6158 2.9434C19.6158 1.3178 20.8556 0 22.385 0H55.615C57.1444 0 58.3842 1.3178 58.3842 2.9434V44.1509C58.3842 45.7765 57.1444 47.0943 55.615 47.0943H22.385C20.8556 47.0943 19.6158 45.7765 19.6158 44.1509V2.9434ZM55.615 2.9434H22.385V8.83019H55.615V2.9434ZM55.615 11.7736H22.385V44.1509H55.615V11.7736Z" fill="#475766"/>
<path fill-rule="evenodd" clip-rule="evenodd" d="M8.53916 13.2453C7.77448 13.2453 7.15458 13.9042 7.15458 14.717V58.8679H70.8454V14.717C70.8454 13.9042 70.2255 13.2453 69.4608 13.2453H63.5613C62.7966 13.2453 62.1767 12.5864 62.1767 11.7736C62.1767 10.9608 62.7966 10.3019 63.5613 10.3019H69.4608C71.7549 10.3019 73.6146 12.2786 73.6146 14.717V60.3284L77.0716 65.8472C78.3283 67.8534 78.3075 70.4712 77.0191 72.4546L75.0681 75.458C74.0341 77.0498 72.3304 78 70.5106 78H7.4894C5.6696 78 3.96592 77.0498 2.93192 75.458L0.980857 72.4546C-0.307537 70.4712 -0.328338 67.8534 0.928354 65.8472L4.38541 60.3283V14.717C4.38541 12.2786 6.24511 10.3019 8.53916 10.3019H14.4387C15.2034 10.3019 15.8233 10.9608 15.8233 11.7736C15.8233 12.5864 15.2034 13.2453 14.4387 13.2453H8.53916ZM6.78328 61.8113H71.2167L74.7667 67.4785C74.9545 67.7784 75.0853 68.1057 75.1591 68.4437C75.1066 68.4373 75.0533 68.434 74.9992 68.434H3.69312C3.34569 68.434 3.02814 68.57 2.78504 68.7947C2.83167 68.3335 2.98099 67.8813 3.23335 67.4785L6.78328 61.8113ZM3.64569 71.3765L5.21066 73.7856C5.72766 74.5815 6.5795 75.0566 7.4894 75.0566H70.5106C71.4205 75.0566 72.2723 74.5815 72.7893 73.7856L74.3538 71.3774H3.69312C3.67725 71.3774 3.66144 71.3771 3.64569 71.3765Z" fill="#475766"/>
</svg>
