<svg width="67" height="84" viewBox="0 0 67 84" fill="none" xmlns="http://www.w3.org/2000/svg">
<path d="M11.75 38.1875C10.1277 38.1875 8.8125 39.5027 8.8125 41.125V45.5312C8.8125 46.3424 9.47008 47 10.2812 47C11.0924 47 11.75 46.3424 11.75 45.5312V41.125H16.1562C16.9674 41.125 17.625 40.4674 17.625 39.6562C17.625 38.8451 16.9674 38.1875 16.1562 38.1875H11.75Z" fill="#475766"/>
<path d="M42.5938 38.1875C41.7826 38.1875 41.125 38.8451 41.125 39.6562C41.125 40.4674 41.7826 41.125 42.5938 41.125H47V45.5312C47 46.3424 47.6576 47 48.4688 47C49.2799 47 49.9375 46.3424 49.9375 45.5312V41.125C49.9375 39.5027 48.6223 38.1875 47 38.1875H42.5938Z" fill="#475766"/>
<path d="M11.75 58.75C11.75 57.9388 11.0924 57.2812 10.2812 57.2812C9.47008 57.2812 8.8125 57.9388 8.8125 58.75V63.1562C8.8125 64.7786 10.1277 66.0938 11.75 66.0938H16.1562C16.9674 66.0938 17.625 65.4362 17.625 64.625C17.625 63.8138 16.9674 63.1562 16.1562 63.1562H11.75V58.75Z" fill="#475766"/>
<path d="M49.9375 58.75C49.9375 57.9388 49.2799 57.2812 48.4688 57.2812C47.6576 57.2812 47 57.9388 47 58.75V63.1562H42.5938C41.7826 63.1562 41.125 63.8138 41.125 64.625C41.125 65.4362 41.7826 66.0938 42.5938 66.0938H47C48.6223 66.0938 49.9375 64.7786 49.9375 63.1562V58.75Z" fill="#475766"/>
<path d="M10.2812 22.0312C9.47008 22.0312 8.8125 22.6888 8.8125 23.5C8.8125 24.3112 9.47008 24.9688 10.2812 24.9688H22.0312C22.8424 24.9688 23.5 24.3112 23.5 23.5C23.5 22.6888 22.8424 22.0312 22.0312 22.0312H10.2812Z" fill="#475766"/>
<path d="M8.8125 32.3125C8.8125 31.5013 9.47008 30.8438 10.2812 30.8438H22.0312C22.8424 30.8438 23.5 31.5013 23.5 32.3125C23.5 33.1237 22.8424 33.7812 22.0312 33.7812H10.2812C9.47008 33.7812 8.8125 33.1237 8.8125 32.3125Z" fill="#475766"/>
<path d="M26.4375 30.8438C25.6263 30.8438 24.9688 31.5013 24.9688 32.3125C24.9688 33.1237 25.6263 33.7812 26.4375 33.7812H32.3125C33.1237 33.7812 33.7812 33.1237 33.7812 32.3125C33.7812 31.5013 33.1237 30.8438 32.3125 30.8438H26.4375Z" fill="#475766"/>
<path d="M17.625 27.9062C17.625 27.0951 18.2826 26.4375 19.0938 26.4375H30.8438C31.6549 26.4375 32.3125 27.0951 32.3125 27.9062C32.3125 28.7174 31.6549 29.375 30.8438 29.375H19.0938C18.2826 29.375 17.625 28.7174 17.625 27.9062Z" fill="#475766"/>
<path d="M35.25 26.4375C34.4388 26.4375 33.7812 27.0951 33.7812 27.9062C33.7812 28.7174 34.4388 29.375 35.25 29.375H41.125C41.9362 29.375 42.5938 28.7174 42.5938 27.9062C42.5938 27.0951 41.9362 26.4375 41.125 26.4375H35.25Z" fill="#475766"/>
<path d="M24.9688 23.5C24.9688 22.6888 25.6263 22.0312 26.4375 22.0312H32.3125C33.1237 22.0312 33.7812 22.6888 33.7812 23.5C33.7812 24.3112 33.1237 24.9688 32.3125 24.9688H26.4375C25.6263 24.9688 24.9688 24.3112 24.9688 23.5Z" fill="#475766"/>
<path d="M36.7188 22.0312C35.9076 22.0312 35.25 22.6888 35.25 23.5C35.25 24.3112 35.9076 24.9688 36.7188 24.9688H48.4688C49.2799 24.9688 49.9375 24.3112 49.9375 23.5C49.9375 22.6888 49.2799 22.0312 48.4688 22.0312H36.7188Z" fill="#475766"/>
<path d="M8.8125 27.9062C8.8125 27.0951 9.47008 26.4375 10.2812 26.4375H14.6875C15.4987 26.4375 16.1562 27.0951 16.1562 27.9062C16.1562 28.7174 15.4987 29.375 14.6875 29.375H10.2812C9.47008 29.375 8.8125 28.7174 8.8125 27.9062Z" fill="#475766"/>
<path d="M42.1636 50.3677L36.2886 44.4927C35.715 43.9191 34.785 43.9191 34.2114 44.4927C33.6379 45.0663 33.6379 45.9962 34.2114 46.5698L39.0479 51.4062L34.2114 56.2427C33.6379 56.8163 33.6379 57.7462 34.2114 58.3198C34.785 58.8934 35.715 58.8934 36.2886 58.3198L42.1636 52.4448C42.7371 51.8712 42.7371 50.9413 42.1636 50.3677Z" fill="#475766"/>
<path d="M22.4614 44.4927L16.5864 50.3677C16.0129 50.9413 16.0129 51.8712 16.5864 52.4448L22.4614 58.3198C23.035 58.8934 23.965 58.8934 24.5386 58.3198C25.1121 57.7462 25.1121 56.8163 24.5386 56.2427L19.7021 51.4062L24.5386 46.5698C25.1121 45.9962 25.1121 45.0663 24.5386 44.4927C23.965 43.9191 23.035 43.9191 22.4614 44.4927Z" fill="#475766"/>
<path d="M32.2686 45.8875C32.4654 45.1005 31.9869 44.3031 31.2 44.1063C30.413 43.9096 29.6156 44.3881 29.4189 45.175L26.4814 56.925C26.2846 57.712 26.7631 58.5094 27.55 58.7061C28.337 58.9029 29.1344 58.4244 29.3311 57.6375L32.2686 45.8875Z" fill="#475766"/>
<path fill-rule="evenodd" clip-rule="evenodd" d="M43.8843 1.29056C43.2577 0.663952 42.4618 0.245561 41.6041 0.0799166C41.4539 0.0281249 41.2928 0 41.125 0C41.0809 0 41.0372 0.00194786 40.994 0.00576233C40.9191 0.0019299 40.844 0 40.7686 0H4.40625C1.97275 0 0 1.97274 0 4.40625V71.9688C0 74.4023 1.97274 76.375 4.40625 76.375H54.3438C56.7773 76.375 58.75 74.4023 58.75 71.9688V17.9814C58.75 16.8128 58.2858 15.692 57.4594 14.8657L43.8843 1.29056ZM4.40625 73.4375H54.3438C55.1549 73.4375 55.8125 72.7799 55.8125 71.9688V17.9814C55.8125 17.8602 55.7975 17.7406 55.7686 17.625H44.0625C41.629 17.625 39.6562 15.6523 39.6562 13.2188V2.9375H4.40625C3.59508 2.9375 2.9375 3.59508 2.9375 4.40625V71.9688C2.9375 72.7799 3.59508 73.4375 4.40625 73.4375ZM42.5938 4.15425L53.127 14.6875H44.0625C43.2513 14.6875 42.5938 14.0299 42.5938 13.2188V4.15425Z" fill="#475766"/>
<path d="M62.1177 13.6489C62.6913 13.0754 63.6212 13.0754 64.1948 13.6489L64.373 13.8271C65.4748 14.9289 66.0938 16.4232 66.0938 17.9814V77.8438C66.0938 81.0884 63.4634 83.7188 60.2188 83.7188H8.8125C6.379 83.7188 4.40625 81.746 4.40625 79.3125C4.40625 78.5013 5.06383 77.8438 5.875 77.8438C6.68617 77.8438 7.34375 78.5013 7.34375 79.3125C7.34375 80.1237 8.00133 80.7812 8.8125 80.7812H60.2188C61.8411 80.7812 63.1562 79.4661 63.1562 77.8438V17.9814C63.1562 17.2023 62.8468 16.4551 62.2959 15.9042L62.1177 15.7261C61.5441 15.1525 61.5441 14.2225 62.1177 13.6489Z" fill="#475766"/>
</svg>
