<svg width="97" height="97" viewBox="0 0 97 97" fill="none" xmlns="http://www.w3.org/2000/svg">
<path d="M74.2656 21.2188C75.1027 21.2188 75.7812 20.5402 75.7812 19.7031C75.7812 18.8661 75.1027 18.1875 74.2656 18.1875C73.4286 18.1875 72.75 18.8661 72.75 19.7031C72.75 20.5402 73.4286 21.2188 74.2656 21.2188Z" fill="white"/>
<path d="M80.3281 19.7031C80.3281 20.5402 79.6496 21.2188 78.8125 21.2188C77.9754 21.2188 77.2969 20.5402 77.2969 19.7031C77.2969 18.8661 77.9754 18.1875 78.8125 18.1875C79.6496 18.1875 80.3281 18.8661 80.3281 19.7031Z" fill="white"/>
<path d="M83.3594 21.2188C84.1964 21.2188 84.875 20.5402 84.875 19.7031C84.875 18.8661 84.1964 18.1875 83.3594 18.1875C82.5223 18.1875 81.8438 18.8661 81.8438 19.7031C81.8438 20.5402 82.5223 21.2188 83.3594 21.2188Z" fill="white"/>
<path fill-rule="evenodd" clip-rule="evenodd" d="M15.1562 62.1406C14.3192 62.1406 13.6406 62.8192 13.6406 63.6562V75.7812C13.6406 76.6183 14.3192 77.2969 15.1562 77.2969H21.2188C22.0558 77.2969 22.7344 76.6183 22.7344 75.7812V63.6562C22.7344 62.8192 22.0558 62.1406 21.2188 62.1406H15.1562ZM16.6719 74.2656V65.1719H19.7031V74.2656H16.6719Z" fill="white"/>
<path fill-rule="evenodd" clip-rule="evenodd" d="M25.7656 56.0781C25.7656 55.2411 26.4442 54.5625 27.2812 54.5625H33.3438C34.1808 54.5625 34.8594 55.2411 34.8594 56.0781V75.7812C34.8594 76.6183 34.1808 77.2969 33.3438 77.2969H27.2812C26.4442 77.2969 25.7656 76.6183 25.7656 75.7812V56.0781ZM28.7969 57.5938V74.2656H31.8281V57.5938H28.7969Z" fill="white"/>
<path fill-rule="evenodd" clip-rule="evenodd" d="M39.4062 45.4688C38.5692 45.4688 37.8906 46.1473 37.8906 46.9844V75.7812C37.8906 76.6183 38.5692 77.2969 39.4062 77.2969H45.4688C46.3058 77.2969 46.9844 76.6183 46.9844 75.7812V46.9844C46.9844 46.1473 46.3058 45.4688 45.4688 45.4688H39.4062ZM40.9219 74.2656V48.5H43.9531V74.2656H40.9219Z" fill="white"/>
<path fill-rule="evenodd" clip-rule="evenodd" d="M50.0156 36.375C50.0156 35.5379 50.6942 34.8594 51.5312 34.8594H57.5938C58.4308 34.8594 59.1094 35.5379 59.1094 36.375V75.7812C59.1094 76.6183 58.4308 77.2969 57.5938 77.2969H51.5312C50.6942 77.2969 50.0156 76.6183 50.0156 75.7812V36.375ZM53.0469 74.2656H56.0781V37.8906H53.0469V74.2656Z" fill="white"/>
<path fill-rule="evenodd" clip-rule="evenodd" d="M75.7812 34.8594C69.9219 34.8594 65.1719 39.6094 65.1719 45.4688C65.1719 51.3281 69.9219 56.0781 75.7812 56.0781C81.6406 56.0781 86.3906 51.3281 86.3906 45.4688C86.3906 39.6094 81.6406 34.8594 75.7812 34.8594ZM68.2031 45.4688C68.2031 41.8025 70.8066 38.7444 74.2656 38.0422V45.4688C74.2656 46.3058 74.9442 46.9844 75.7812 46.9844H83.2078C82.5056 50.4434 79.4475 53.0469 75.7812 53.0469C71.596 53.0469 68.2031 49.654 68.2031 45.4688ZM77.2969 43.9531V38.0422C80.2662 38.645 82.605 40.9838 83.2078 43.9531H77.2969Z" fill="white"/>
<path d="M85.5101 58.4911C86.2701 58.8418 86.6019 59.7423 86.2511 60.5023L81.7043 70.3539C81.5124 70.7695 81.1431 71.0761 80.6993 71.1882C80.2556 71.3003 79.7849 71.2059 79.4188 70.9312L74.5973 67.3151L69.6326 74.2656H85.6328C86.4699 74.2656 87.1484 74.9442 87.1484 75.7812C87.1484 76.6183 86.4699 77.2969 85.6328 77.2969H66.6875C65.8504 77.2969 65.1719 76.6183 65.1719 75.7812V60.625C65.1719 59.7879 65.8504 59.1094 66.6875 59.1094C67.5246 59.1094 68.2031 59.7879 68.2031 60.625V71.0518L73.0323 64.2909C73.2695 63.9589 73.6306 63.7365 74.0339 63.6741C74.4371 63.6117 74.8485 63.7145 75.175 63.9594L79.7377 67.3814L83.4989 59.232C83.8496 58.472 84.7501 58.1403 85.5101 58.4911Z" fill="white"/>
<path d="M15.1562 34.8594C14.3192 34.8594 13.6406 35.5379 13.6406 36.375C13.6406 37.2121 14.3192 37.8906 15.1562 37.8906H27.2812C28.1183 37.8906 28.7969 37.2121 28.7969 36.375C28.7969 35.5379 28.1183 34.8594 27.2812 34.8594H15.1562Z" fill="white"/>
<path d="M22.7344 40.9219C22.7344 40.0848 23.4129 39.4062 24.25 39.4062H30.3125C31.1496 39.4062 31.8281 40.0848 31.8281 40.9219C31.8281 41.7589 31.1496 42.4375 30.3125 42.4375H24.25C23.4129 42.4375 22.7344 41.7589 22.7344 40.9219Z" fill="white"/>
<path d="M15.1562 43.9531C14.3192 43.9531 13.6406 44.6317 13.6406 45.4688C13.6406 46.3058 14.3192 46.9844 15.1562 46.9844H24.25C25.0871 46.9844 25.7656 46.3058 25.7656 45.4688C25.7656 44.6317 25.0871 43.9531 24.25 43.9531H15.1562Z" fill="white"/>
<path d="M30.3125 36.375C30.3125 35.5379 30.9911 34.8594 31.8281 34.8594H37.8906C38.7277 34.8594 39.4062 35.5379 39.4062 36.375C39.4062 37.2121 38.7277 37.8906 37.8906 37.8906H31.8281C30.9911 37.8906 30.3125 37.2121 30.3125 36.375Z" fill="white"/>
<path d="M15.1562 39.4062C14.3192 39.4062 13.6406 40.0848 13.6406 40.9219C13.6406 41.7589 14.3192 42.4375 15.1562 42.4375H19.7031C20.5402 42.4375 21.2188 41.7589 21.2188 40.9219C21.2188 40.0848 20.5402 39.4062 19.7031 39.4062H15.1562Z" fill="white"/>
<path fill-rule="evenodd" clip-rule="evenodd" d="M6.0625 81.8438V15.1563C6.0625 13.4821 7.41964 12.125 9.09375 12.125H89.4219C91.096 12.125 92.4531 13.4821 92.4531 15.1562V81.8438C92.4531 83.5179 91.096 84.875 89.4219 84.875H9.09375C7.41964 84.875 6.0625 83.5179 6.0625 81.8438ZM89.4219 15.1562H9.09375L9.09375 24.25H88.6641C88.9401 24.25 89.1989 24.3238 89.4219 24.4528V15.1562ZM88.6641 27.2812H9.09375L9.09375 81.8438H89.4219V27.0785C89.1989 27.2074 88.9401 27.2812 88.6641 27.2812Z" fill="white"/>
</svg>
