<svg width="101" height="103" viewBox="0 0 101 103" fill="none" xmlns="http://www.w3.org/2000/svg">
<path fill-rule="evenodd" clip-rule="evenodd" d="M69.6978 48.7411C69.6978 53.3122 66.0025 57.0179 61.4441 57.0179C56.8857 57.0179 53.1904 53.3122 53.1904 48.7411C53.1904 44.1699 56.8857 40.4643 61.4441 40.4643C66.0025 40.4643 69.6978 44.1699 69.6978 48.7411ZM66.0295 48.7411C66.0295 51.2806 63.9765 53.3393 61.4441 53.3393C58.9117 53.3393 56.8587 51.2806 56.8587 48.7411C56.8587 46.2015 58.9117 44.1429 61.4441 44.1429C63.9765 44.1429 66.0295 46.2015 66.0295 48.7411Z" fill="white"/>
<path fill-rule="evenodd" clip-rule="evenodd" d="M56.3884 33.4074C56.9244 31.0784 58.9925 29.4286 61.3761 29.4286H61.5115C63.8951 29.4286 65.9633 31.0784 66.4993 33.4075C66.7233 34.3809 67.8367 34.8434 68.6815 34.3139C70.7028 33.047 73.3286 33.3469 75.0141 35.0371L75.1098 35.133C76.7953 36.8232 77.0943 39.4564 75.831 41.4834C75.3029 42.3306 75.7641 43.4471 76.7348 43.6717C79.0574 44.2092 80.7027 46.2831 80.7027 48.6734V48.8094C80.7027 51.1995 79.0575 53.2734 76.7351 53.8108C75.7646 54.0354 75.3035 55.1517 75.8314 55.9987C77.0946 58.0255 76.7956 60.6585 75.1102 62.3487L75.0145 62.4447C73.3289 64.1349 70.7031 64.4348 68.6817 63.1679C67.8369 62.6384 66.7233 63.1009 66.4993 64.0745C65.9633 66.4036 63.8951 68.0536 61.5114 68.0536H61.3762C58.9925 68.0536 56.9244 66.4036 56.3884 64.0745C56.1644 63.101 55.051 62.6386 54.2063 63.168C52.185 64.4349 49.5593 64.135 47.8739 62.4448L47.778 62.3487C46.0926 60.6585 45.7936 58.0255 47.0568 55.9987C47.5847 55.1517 47.1236 54.0354 46.1531 53.8108C43.8307 53.2734 42.1855 51.1995 42.1855 48.8094V48.6735C42.1855 46.2832 43.8308 44.2092 46.1533 43.6717C47.124 43.4471 47.5852 42.3306 47.0572 41.4834C45.7939 39.4564 46.0929 36.8232 47.7784 35.133L47.8742 35.037C49.5596 33.3468 52.1853 33.047 54.2065 34.3138C55.0512 34.8432 56.1644 34.3808 56.3884 33.4074ZM61.3761 33.1071C60.7007 33.1071 60.1147 33.5746 59.9628 34.2346C59.1723 37.6695 55.2435 39.3016 52.2623 37.4332C51.6896 37.0743 50.9457 37.1592 50.4681 37.6381L50.3723 37.7342C49.8947 38.2131 49.8099 38.9593 50.168 39.5337C52.0312 42.5233 50.4038 46.4633 46.9782 47.2561C46.32 47.4084 45.8538 47.9961 45.8538 48.6735V48.8094C45.8538 49.4866 46.3199 50.0742 46.978 50.2264C50.4033 51.0191 52.0307 54.959 50.1675 57.9483C49.8096 58.5226 49.8943 59.2687 50.3718 59.7475L50.4677 59.8437C50.9453 60.3226 51.6894 60.4076 52.2621 60.0486C55.2434 58.1801 59.1723 59.8124 59.9627 63.2474C60.1146 63.9074 60.7008 64.375 61.3762 64.375H61.5114C62.1869 64.375 62.773 63.9074 62.9249 63.2473C63.7155 59.8121 67.6446 58.18 70.6259 60.0485C71.1988 60.4075 71.9429 60.3225 72.4206 59.8435L72.5163 59.7475C72.9939 59.2687 73.0786 58.5226 72.7207 57.9483C70.8575 54.959 72.4849 51.0191 75.9102 50.2264C76.5683 50.0742 77.0344 49.4866 77.0344 48.8094V48.6734C77.0344 47.9961 76.5682 47.4084 75.91 47.2561C72.4844 46.4633 70.857 42.5233 72.7202 39.5337C73.0783 38.9593 72.9935 38.2131 72.5159 37.7342L72.4202 37.6382C71.9426 37.1593 71.1985 37.0743 70.6257 37.4333C67.6445 39.3018 63.7154 37.6698 62.9249 34.2347C62.773 33.5747 62.187 33.1071 61.5115 33.1071H61.3761Z" fill="white"/>
<path fill-rule="evenodd" clip-rule="evenodd" d="M14.6732 5.51786C14.6732 2.47043 17.1367 0 20.1757 0C23.2146 0 25.6781 2.47043 25.6781 5.51786C25.6781 6.36972 25.4856 7.17649 25.1419 7.89682L28.6519 11.4166C28.9958 11.7616 29.4624 11.9554 29.9488 11.9554H44.3343C45.7937 11.9554 47.1933 12.5367 48.2252 13.5715L52.2361 17.5936C54.8826 16.9145 57.6603 16.5536 60.5269 16.5536C77.2244 16.5536 90.9064 28.9155 93.2025 45.0053C93.6504 48.1437 94.2228 51.2944 95.5387 54.1771L100.5 65.0452C101.734 67.749 100.609 70.9473 97.9572 72.2771L93.5097 74.5071C92.3873 75.0699 91.6297 76.1689 91.5012 77.4206L90.7054 85.1722C90.4166 87.986 88.0527 90.125 85.2319 90.125H78.8684V103H47.6878V91.9643H41.8724C41.117 94.1074 39.0788 95.6429 36.683 95.6429C33.6441 95.6429 31.1806 93.1724 31.1806 90.125C31.1806 87.0776 33.6441 84.6071 36.683 84.6071C39.0788 84.6071 41.117 86.1426 41.8724 88.2857H47.6878V82.5442C47.6878 81.2712 47.2447 80.0757 46.4969 79.0893H33.6171C33.1307 79.0893 32.6642 79.2831 32.3202 79.628L26.2153 85.7499C25.8714 86.0949 25.6781 86.5627 25.6781 87.0505V92.2783C27.8153 93.0358 29.3464 95.0796 29.3464 97.4821C29.3464 100.53 26.8829 103 23.844 103C20.8051 103 18.3415 100.53 18.3415 97.4821C18.3415 95.0796 19.8727 93.0358 22.0098 92.2783V87.0505C22.0098 85.5871 22.5895 84.1836 23.6215 83.1488L29.7263 77.0269C30.7582 75.9921 32.1578 75.4107 33.6171 75.4107H41.5933C40.4267 74.555 39.3048 73.6337 38.239 72.6518H26.2805C25.7941 72.6518 25.3275 72.8456 24.9836 73.1905L17.8053 80.3889C18.149 81.1092 18.3415 81.916 18.3415 82.7679C18.3415 85.8153 15.878 88.2857 12.8391 88.2857C9.80014 88.2857 7.33661 85.8153 7.33661 82.7679C7.33661 79.7204 9.80014 77.25 12.8391 77.25C13.6885 77.25 14.4931 77.443 15.2114 77.7878L22.3897 70.5894C23.4216 69.5546 24.8212 68.9732 26.2805 68.9732H34.7531C33.7908 67.8051 32.904 66.577 32.1055 65.2946H27.1976C25.7382 65.2946 24.3387 64.7133 23.3068 63.6785L19.0361 59.3959C18.6921 59.0509 18.2256 58.8571 17.7391 58.8571H10.6918C9.93644 61.0003 7.89826 62.5357 5.50246 62.5357C2.46353 62.5357 0 60.0653 0 57.0179C0 53.9704 2.46353 51.5 5.50246 51.5C7.89826 51.5 9.93644 53.0355 10.6918 55.1786H17.7391C19.1985 55.1786 20.598 55.7599 21.63 56.7947L25.9007 61.0774C26.2446 61.4223 26.7111 61.6161 27.1976 61.6161H30.1332C28.4667 57.9426 27.5122 53.9212 27.5122 49.6607H21.6967C20.9414 51.8038 18.9032 53.3393 16.5074 53.3393C13.4684 53.3393 11.0049 50.8689 11.0049 47.8214C11.0049 44.774 13.4684 42.3036 16.5074 42.3036C18.9032 42.3036 20.9414 43.839 21.6967 45.9821H27.711C28.178 41.6919 29.453 37.6551 31.3816 34.0268H25.3634C24.877 34.0268 24.4105 34.2206 24.0665 34.5655L19.7958 38.8481C18.7639 39.8829 17.3643 40.4643 15.905 40.4643H10.6918C9.93644 42.6074 7.89826 44.1429 5.50246 44.1429C2.46353 44.1429 0 41.6724 0 38.625C0 35.5776 2.46353 33.1071 5.50246 33.1071C7.89826 33.1071 9.93644 34.6426 10.6918 36.7857H15.905C16.3914 36.7857 16.858 36.5919 17.2019 36.247L21.4726 31.9644C22.5045 30.9296 23.9041 30.3482 25.3634 30.3482H33.6587C34.8394 28.6941 36.1688 27.155 37.6278 25.75H21.6967C20.9414 27.8931 18.9032 29.4286 16.5074 29.4286C13.4684 29.4286 11.0049 26.9581 11.0049 23.9107C11.0049 20.8633 13.4684 18.3929 16.5074 18.3929C18.9032 18.3929 20.9414 19.9283 21.6967 22.0714H42.1855V22.0819C44.0966 20.8059 46.1498 19.7249 48.3176 18.8665L45.6313 16.1726C45.2873 15.8277 44.8208 15.6339 44.3343 15.6339H29.9488C28.4895 15.6339 27.0899 15.0526 26.058 14.0178L22.548 10.498C21.8297 10.8427 21.0252 11.0357 20.1757 11.0357C17.1367 11.0357 14.6732 8.56529 14.6732 5.51786ZM20.1757 3.67857C19.1627 3.67857 18.3415 4.50205 18.3415 5.51786C18.3415 6.53367 19.1627 7.35714 20.1757 7.35714C21.1886 7.35714 22.0098 6.53367 22.0098 5.51786C22.0098 4.50205 21.1886 3.67857 20.1757 3.67857ZM36.683 88.2857C37.696 88.2857 38.5172 89.1092 38.5172 90.125C38.5172 91.1408 37.696 91.9643 36.683 91.9643C35.6701 91.9643 34.8489 91.1408 34.8489 90.125C34.8489 89.1092 35.6701 88.2857 36.683 88.2857ZM7.33661 57.0179C7.33661 56.002 6.51543 55.1786 5.50246 55.1786C4.48948 55.1786 3.6683 56.002 3.6683 57.0179C3.6683 58.0337 4.48948 58.8571 5.50246 58.8571C6.51543 58.8571 7.33661 58.0337 7.33661 57.0179ZM5.50246 36.7857C6.51543 36.7857 7.33661 37.6092 7.33661 38.625C7.33661 39.6408 6.51543 40.4643 5.50246 40.4643C4.48948 40.4643 3.6683 39.6408 3.6683 38.625C3.6683 37.6092 4.48948 36.7857 5.50246 36.7857ZM70.6147 88.2857C70.6147 87.2699 71.4359 86.4464 72.4489 86.4464H85.2319C86.1722 86.4464 86.9601 85.7334 87.0564 84.7955L87.2651 82.7624C87.218 82.766 87.1703 82.7679 87.1222 82.7679H82.5368C81.5239 82.7679 80.7027 81.9444 80.7027 80.9286C80.7027 79.9128 81.5239 79.0893 82.5368 79.0893H87.1222C87.3001 79.0893 87.4721 79.1147 87.6347 79.162L87.8521 77.0439C88.1091 74.5405 89.6244 72.3424 91.8692 71.2169L96.3167 68.9869C97.2007 68.5436 97.5755 67.4775 97.1641 66.5763L92.2032 55.7082C90.6516 52.309 90.0247 48.7045 89.5712 45.5264C87.528 31.2087 75.3594 20.2321 60.5269 20.2321C44.2308 20.2321 31.1805 33.3288 31.1805 49.6607C31.1805 59.9713 37.6777 68.9749 46.5406 74.2897C49.3016 75.9454 51.3561 78.9653 51.3561 82.5442V99.3214H75.2001V90.125H72.4489C71.4359 90.125 70.6147 89.3015 70.6147 88.2857ZM14.6732 23.9107C14.6732 22.8949 15.4944 22.0714 16.5074 22.0714C17.5203 22.0714 18.3415 22.8949 18.3415 23.9107C18.3415 24.9265 17.5203 25.75 16.5074 25.75C15.4944 25.75 14.6732 24.9265 14.6732 23.9107ZM12.8391 80.9286C11.8261 80.9286 11.0049 81.752 11.0049 82.7679C11.0049 83.7837 11.8261 84.6071 12.8391 84.6071C13.852 84.6071 14.6732 83.7837 14.6732 82.7679C14.6732 81.752 13.852 80.9286 12.8391 80.9286ZM22.0098 97.4821C22.0098 96.4663 22.831 95.6429 23.844 95.6429C24.857 95.6429 25.6781 96.4663 25.6781 97.4821C25.6781 98.498 24.857 99.3214 23.844 99.3214C22.831 99.3214 22.0098 98.498 22.0098 97.4821ZM14.6732 47.8214C14.6732 46.8056 15.4944 45.9821 16.5074 45.9821C17.5203 45.9821 18.3415 46.8056 18.3415 47.8214C18.3415 48.8372 17.5203 49.6607 16.5074 49.6607C15.4944 49.6607 14.6732 48.8372 14.6732 47.8214Z" fill="white"/>
</svg>
